<svg width="26" height="18" viewBox="0 0 26 18" fill="none" xmlns="http://www.w3.org/2000/svg">
<g clip-path="url(#clip0)">
<path fill-rule="evenodd" clip-rule="evenodd" d="M10.0821 12.3194L10.0813 5.12881L16.9473 8.73649L10.0821 12.3194ZM25.1576 3.88279C25.1576 3.88279 24.9091 2.11935 24.1475 1.34279C23.1811 0.323105 22.0979 0.318297 21.6016 0.259116C18.0455 -3.75509e-06 12.7114 0 12.7114 0H12.7003C12.7003 0 7.36624 -3.75509e-06 3.81018 0.259116C3.31306 0.318297 2.23068 0.323105 1.26344 1.34279C0.501885 2.11935 0.254115 3.88279 0.254115 3.88279C0.254115 3.88279 0 5.95415 0 8.0247V9.96651C0 12.0379 0.254115 14.1084 0.254115 14.1084C0.254115 14.1084 0.501885 15.8719 1.26344 16.6484C2.23068 17.6681 3.50047 17.6361 4.06588 17.7425C6.09882 17.9392 12.7059 18 12.7059 18C12.7059 18 18.0455 17.992 21.6016 17.7329C22.0979 17.6729 23.1811 17.6681 24.1475 16.6484C24.9091 15.8719 25.1576 14.1084 25.1576 14.1084C25.1576 14.1084 25.4118 12.0379 25.4118 9.96651V8.0247C25.4118 5.95415 25.1576 3.88279 25.1576 3.88279Z" fill="#13AA57"/>
</g>
<defs>
<clipPath id="clip0">
<rect width="25.4118" height="18" fill="white"/>
</clipPath>
</defs>
</svg>
